inDegrees=yes
name=ik_lifting_orientations
DataType=double
version=3
OpenSimVersion=4.5-2024-01-10-34fd6af
endheader
time	pelvis_tilt	pelvis_list	pelvis_rotation	pelvis_tx	pelvis_ty	pelvis_tz	hip_flexion_r	hip_adduction_r	hip_rotation_r	knee_angle_r	knee_angle_r_beta	ankle_angle_r	subtalar_angle_r	mtp_angle_r	hip_flexion_l	hip_adduction_l	hip_rotation_l	knee_angle_l	knee_angle_l_beta	ankle_angle_l	subtalar_angle_l	mtp_angle_l	lumbar_extension	lumbar_bending	lumbar_rotation	arm_flex_r	arm_add_r	arm_rot_r	elbow_flex_r	pro_sup_r	wrist_flex_r	wrist_dev_r	arm_flex_l	arm_add_l	arm_rot_l	elbow_flex_l	pro_sup_l	wrist_flex_l	wrist_dev_l
1.74	0.1520515605612859	1.108948986840658	90.99312707638104	0	0.9400000003403366	0	44.73117439590152	-10.00610371437754	0	59.07441617279522	1.031043065908664	-5.000745483722201	0	0	44.73117439590152	-10.00610371437754	0	59.07441617279522	1.031043065908664	-5.000745483722201	0	0	0.003561911584532344	0.01697950288556956	0.0179888011291528	19.58002414683095	-37.10809689557677	15.06602787280521	69.1216574860274	-2.572676597685994	0	0	0	-12.68081715733356	0	75.02163875350135	2.572466332993934	0	0
1.75	0.1539569544869614	1.118518153528546	90.95859357311173	0	0.9400000003403366	0	44.73132774156243	-10.00609151039767	0	59.07482956053846	1.031050280885871	-5.000743537982702	0	0	44.73132774156243	-10.00609151039767	0	59.07482956053846	1.031050280885871	-5.000743537982702	0	0	-0.01597724525300806	0.003478641475947676	-0.02468345540222536	20.72528448603209	-37.97317838910236	15.93362982202765	68.44058771267112	-2.571655923450709	0	0	0	-12.68149338757916	0	75.02162651067545	2.57144565875435	0	0
1.76	0.151083412990719	1.109317169809794	90.93128048960078	0	0.9400000003403366	0	44.73146324408913	-10.00608074340854	0	59.07519495996934	1.031056658309025	-5.000741822406069	0	0	44.73146324408913	-10.00608074340854	0	59.07519495996934	1.031056658309025	-5.000741822406069	0	0	0.003616246371133026	0.01527397440285473	0.01891479000398561	21.77343948888334	-38.91333708551039	16.60633169242569	67.86879648852523	-2.570753801086104	0	0	0	-12.68209117038948	0	75.02161569241115	2.570543536385948	0	0
1.77	0.1192251935744853	1.104790233433986	90.75171416311701	0	0.9400000003403366	0	44.73165942119726	-10.00606517212645	0	59.0757238228398	1.031065888707406	-5.000739342788635	0	0	44.73165942119726	-10.00606517212645	0	59.0757238228398	1.031065888707406	-5.000739342788635	0	0	0.001185380761652362	-0.002429048496992925	0.001240775671257536	23.34118727564192	-39.6721535672349	17.80065035446928	66.99922769486939	-2.569447691128124	0	0	0	-12.68295663233637	0	75.02160003000323	2.569237426422471	0	0
1.78	0.1047075535477702	1.102500919525874	90.62806264747273	0	0.9400000003403366	0	44.7318054658654	-10.0060536056022	0	59.07611779820591	1.031072764874716	-5.000737502352997	0	0	44.7318054658654	-10.0060536056022	0	59.07611779820591	1.031072764874716	-5.000737502352997	0	0	-0.001823817329130378	0.01312911994152625	0.01048068419103899	24.94925026522603	-40.5120106953816	18.97507016919076	66.00495687652379	-2.568474973459919	0	0	0	-12.68360136611584	0	75.02158837007372	2.568264708750168	0	0
1.79	0.06743929358187802	1.096360259440155	90.4987155072557	0	0.9400000003403366	0	44.73199086101597	-10.00603893928414	0	59.07661780770528	1.031081491686771	-5.000735170077164	0	0	44.73199086101597	-10.00603893928414	0	59.07661780770528	1.031081491686771	-5.000735170077164	0	0	-0.000301065721401811	-0.00236382164389364	-0.001093098453716351	26.86262834405082	-41.34416213256751	20.39604250308019	64.71529345547896	-2.567240104367888	0	0	0	-12.68441985325521	0	75.02157356847601	2.567029839652934	0	0
1.8	0.06108022054646272	1.095545818499693	90.44396596964776	0	0.9400000003403366	0	44.73217992034177	-10.00602401026086	0	59.07712781096352	1.031090392922824	-5.000732797820527	0	0	44.73217992034177	-10.00602401026086	0	59.07712781096352	1.031090392922824	-5.000732797820527	0	0	-0.0003548199920222152	-0.0003912201849117608	0.0006648769796445256	28.99197317566584	-42.05826576257149	22.01643798916712	63.24451415280472	-2.565980532479061	0	0	0	-12.68525483884025	0	75.021558474337	2.565770267758804	0	0
1.81	0.04967837741921285	1.108394795532996	90.39047948797739	0	0.9400000003403366	0	44.73239836525334	-10.00600678746859	0	59.07771702201858	1.031100676595724	-5.00073006310091	0	0	44.73239836525334	-10.00600678746859	0	59.07771702201858	1.031100676595724	-5.00073006310091	0	0	-0.0006576910061680164	0.0007433267328348955	-0.01202237205452002	31.20479287216904	-42.85830671403068	23.73552706179293	61.68945323942309	-2.564525003182426	0	0	0	-12.68621977577301	0	75.02154103410798	2.564314738456029	0	0
1.82	0.04730873124855689	1.093888391770914	90.38466566669523	0	0.9400000003403366	0	44.73258898986408	-10.0059917963894	0	59.07823150364759	1.031109655994091	-5.000727685038465	0	0	44.73258898986408	-10.0059917963894	0	59.07823150364759	1.031109655994091	-5.000727685038465	0	0	0.001122694966286366	-0.002879008859983496	0.001934497804215641	33.87140301164304	-43.48091262993278	25.81172546942809	59.64629696840741	-2.563254326900958	0	0	0	-12.68706240816986	0	75.0215258149985	2.563044062169208	0	0
1.83	0.02050085445941939	1.081668511916719	90.27158679991936	0	0.9400000003403366	0	44.73275834191718	-10.00597850265691	0	59.07868871325471	1.031117635807107	-5.000725577779849	0	0	44.73275834191718	-10.00597850265691	0	59.07868871325471	1.031117635807107	-5.000725577779849	0	0	-0.001333688550531889	-0.003193513667190225	0.003356274255731213	36.4304567564086	-44.07937358176267	27.85715022589711	57.81347630411324	-2.562125155435057	0	0	0	-12.68781133473154	0	75.02151229424943	2.561914890698547	0	0
1.84	0.003407867645446258	1.084469482770123	90.1463687304739	0	0.9400000003403366	0	44.73295108536651	-10.00596339747636	0	59.07920911291681	1.031126718494637	-5.000723185102482	0	0	44.73295108536651	-10.00596339747636	0	59.07920911291681	1.031126718494637	-5.000723185102482	0	0	-0.0008151785214663737	-0.0003809012964336006	0.001268850015331979	39.35594737197286	-44.45179996430942	30.28853538394554	55.67148745795489	-2.560839788481817	0	0	0	-12.68866394532822	0	75.02149690597493	2.56062952373989	0	0
1.85	-0.02961250114266292	1.076662613239391	90.02085100691147	0	0.9400000003403366	0	44.73312844112444	-10.00594953648213	0	59.07968840630848	1.031135083742404	-5.000720991598965	0	0	44.73312844112444	-10.00594953648213	0	59.07968840630848	1.031135083742404	-5.000720991598965	0	0	-0.003403321580420669	-0.00711805540319763	-0.002658467605614694	42.97548922786552	-44.37571869083419	33.26234391620554	52.73541191076803	-2.559656437469684	0	0	0	-12.68944918519776	0	75.02148274622409	2.559446172722772	0	0
1.86	-0.06664976117299175	1.063916343099733	89.7965978174075	0	0.9400000003403366	0	44.73328541149535	-10.00593729555906	0	59.08011286997612	1.03114249203096	-5.00071905601575	0	0	44.73328541149535	-10.00593729555906	0	59.08011286997612	1.03114249203096	-5.00071905601575	0	0	-0.001664880358266587	-0.02378088753306887	0.001497635841093956	46.63985856481924	-44.07658554155128	36.32110893269815	49.76884749456868	-2.558608708300778	0	0	0	-12.69014462015972	0	75.02147021400377	2.558398443549443	0	0
1.87	-0.0728728541205534	1.003867410700021	89.67549677160521	0	0.9400000003403366	0	44.73347898660388	-10.00592222123317	0	59.08063627143257	1.031151627109685	-5.000716673986117	0	0	44.73347898660388	-10.00592222123317	0	59.08063627143257	1.031151627109685	-5.000716673986117	0	0	-0.002483511916966771	-0.001586988086338649	-0.00823539601970793	50.76697810653165	-43.34848862921052	39.7479160944819	46.1734387591742	-2.5573165070027	0	0	0	-12.69100236365993	0	75.02145475932936	2.557106242245916	0	0
1.88	-0.09721924833987025	1.001589081992039	89.53524050362437	0	0.9400000003403366	0	44.73367263465897	-10.00590717803236	0	59.08116017120022	1.031160770885581	-5.000714299068163	0	0	44.73367263465897	-10.00590717803236	0	59.08116017120022	1.031160770885581	-5.000714299068163	0	0	0.006865658315260717	0.006521731366007163	0.01009801988713929	55.03358279506188	-42.13601380961612	43.33437750077527	41.92944070023674	-2.556023316192108	0	0	0	-12.69186099921299	0	75.02143929883036	2.555813051429869	0	0
1.89	-0.1228249415497507	0.9977545251376719	89.4294166617819	0	0.9400000003403366	0	44.73383994372658	-10.00589421042238	0	59.08161310015537	1.031168675987125	-5.000712253524625	0	0	44.73383994372658	-10.00589421042238	0	59.08161310015537	1.031168675987125	-5.000712253524625	0	0	-0.0004863891429034478	-0.009835283482444309	-0.006793002178150726	58.9340200243283	-40.20011739473652	46.42247114851281	38.00513668878212	-2.554905580083746	0	0	0	-12.6926033523509	0	75.02142594118635	2.554695315316798	0	0
1.9	-0.1520381037694387	0.9890062434155195	89.21379947557452	0	0.9400000003403366	0	44.73402008400339	-10.00588027604764	0	59.08210096291197	1.031177190798526	-5.000710057174958	0	0	44.73402008400339	-10.00588027604764	0	59.08210096291197	1.031177190798526	-5.000710057174958	0	0	0.001306843761999506	-0.000271427672954526	0.001007526258439285	63.43653419770978	-37.52193691293282	50.18274915907397	32.67082156360537	-2.553701761257378	0	0	0	-12.6934030433355	0	75.02141155912201	2.55349149648536	0	0
